<mxfile host="Electron" agent="Mozilla/5.0 (X11; Linux x86_64) AppleWebKit/537.36 (KHTML, like Gecko) draw.io/26.0.4 Chrome/128.0.6613.186 Electron/32.2.5 Safari/537.36" version="26.0.4">
  <diagram name="formador-desktop" id="03018318-947c-dd8e-b7a3-06fadd420f32">
    <mxGraphModel dx="1388" dy="838" grid="1" gridSize="10" guides="1" tooltips="1" connect="1" arrows="1" fold="1" page="1" pageScale="1" pageWidth="1100" pageHeight="850" background="none" math="0" shadow="0">
      <root>
        <mxCell id="0" />
        <mxCell id="1" parent="0" />
        <mxCell id="677b7b8949515195-1" value="" style="whiteSpace=wrap;html=1;rounded=0;shadow=0;labelBackgroundColor=none;strokeColor=#000000;strokeWidth=1;fillColor=none;fontFamily=Verdana;fontSize=12;fontColor=#000000;align=center;comic=1;" parent="1" vertex="1">
          <mxGeometry x="20" y="20" width="1060" height="810" as="geometry" />
        </mxCell>
        <mxCell id="677b7b8949515195-2" value="LOGO" style="whiteSpace=wrap;html=1;rounded=0;shadow=0;labelBackgroundColor=none;strokeWidth=1;fontFamily=Verdana;fontSize=28;align=center;comic=1;" parent="1" vertex="1">
          <mxGeometry x="40" y="30" width="190" height="50" as="geometry" />
        </mxCell>
        <mxCell id="677b7b8949515195-5" value="Sair" style="text;html=1;points=[];align=left;verticalAlign=top;spacingTop=-4;fontSize=14;fontFamily=Verdana" parent="1" vertex="1">
          <mxGeometry x="1030" y="45" width="60" height="20" as="geometry" />
        </mxCell>
        <mxCell id="677b7b8949515195-9" value="" style="line;strokeWidth=1;html=1;rounded=0;shadow=0;labelBackgroundColor=none;fillColor=none;fontFamily=Verdana;fontSize=14;fontColor=#000000;align=center;comic=1;" parent="1" vertex="1">
          <mxGeometry x="20" y="40" width="1060" height="110" as="geometry" />
        </mxCell>
        <mxCell id="z1JprwLejfdvqGFjg06h-58" value="" style="shape=table;startSize=0;container=1;collapsible=0;childLayout=tableLayout;comic=1;" vertex="1" parent="1">
          <mxGeometry x="160" y="204" width="840" height="460" as="geometry" />
        </mxCell>
        <mxCell id="z1JprwLejfdvqGFjg06h-59" value="" style="shape=tableRow;horizontal=0;startSize=0;swimlaneHead=0;swimlaneBody=0;strokeColor=inherit;top=0;left=0;bottom=0;right=0;collapsible=0;dropTarget=0;fillColor=none;points=[[0,0.5],[1,0.5]];portConstraint=eastwest;" vertex="1" parent="z1JprwLejfdvqGFjg06h-58">
          <mxGeometry width="840" height="66" as="geometry" />
        </mxCell>
        <mxCell id="z1JprwLejfdvqGFjg06h-60" value="&lt;font style=&quot;font-size: 19px;&quot;&gt;Title&lt;/font&gt;" style="shape=partialRectangle;html=1;whiteSpace=wrap;connectable=0;strokeColor=inherit;overflow=hidden;fillColor=none;top=0;left=0;bottom=0;right=0;pointerEvents=1;" vertex="1" parent="z1JprwLejfdvqGFjg06h-59">
          <mxGeometry width="210" height="66" as="geometry">
            <mxRectangle width="210" height="66" as="alternateBounds" />
          </mxGeometry>
        </mxCell>
        <mxCell id="z1JprwLejfdvqGFjg06h-61" value="&lt;font style=&quot;font-size: 19px;&quot;&gt;Status&lt;/font&gt;" style="shape=partialRectangle;html=1;whiteSpace=wrap;connectable=0;strokeColor=inherit;overflow=hidden;fillColor=none;top=0;left=0;bottom=0;right=0;pointerEvents=1;" vertex="1" parent="z1JprwLejfdvqGFjg06h-59">
          <mxGeometry x="210" width="210" height="66" as="geometry">
            <mxRectangle width="210" height="66" as="alternateBounds" />
          </mxGeometry>
        </mxCell>
        <mxCell id="z1JprwLejfdvqGFjg06h-62" value="&lt;font style=&quot;font-size: 19px;&quot;&gt;Response Count&lt;/font&gt;" style="shape=partialRectangle;html=1;whiteSpace=wrap;connectable=0;strokeColor=inherit;overflow=hidden;fillColor=none;top=0;left=0;bottom=0;right=0;pointerEvents=1;" vertex="1" parent="z1JprwLejfdvqGFjg06h-59">
          <mxGeometry x="420" width="210" height="66" as="geometry">
            <mxRectangle width="210" height="66" as="alternateBounds" />
          </mxGeometry>
        </mxCell>
        <mxCell id="z1JprwLejfdvqGFjg06h-63" value="&lt;font style=&quot;font-size: 19px;&quot;&gt;Actions&lt;/font&gt;" style="shape=partialRectangle;html=1;whiteSpace=wrap;connectable=0;strokeColor=inherit;overflow=hidden;fillColor=none;top=0;left=0;bottom=0;right=0;pointerEvents=1;" vertex="1" parent="z1JprwLejfdvqGFjg06h-59">
          <mxGeometry x="630" width="210" height="66" as="geometry">
            <mxRectangle width="210" height="66" as="alternateBounds" />
          </mxGeometry>
        </mxCell>
        <mxCell id="z1JprwLejfdvqGFjg06h-64" value="" style="shape=tableRow;horizontal=0;startSize=0;swimlaneHead=0;swimlaneBody=0;strokeColor=inherit;top=0;left=0;bottom=0;right=0;collapsible=0;dropTarget=0;fillColor=none;points=[[0,0.5],[1,0.5]];portConstraint=eastwest;" vertex="1" parent="z1JprwLejfdvqGFjg06h-58">
          <mxGeometry y="66" width="840" height="65" as="geometry" />
        </mxCell>
        <mxCell id="z1JprwLejfdvqGFjg06h-65" value="" style="shape=partialRectangle;html=1;whiteSpace=wrap;connectable=0;strokeColor=inherit;overflow=hidden;fillColor=none;top=0;left=0;bottom=0;right=0;pointerEvents=1;" vertex="1" parent="z1JprwLejfdvqGFjg06h-64">
          <mxGeometry width="210" height="65" as="geometry">
            <mxRectangle width="210" height="65" as="alternateBounds" />
          </mxGeometry>
        </mxCell>
        <mxCell id="z1JprwLejfdvqGFjg06h-66" value="" style="shape=partialRectangle;html=1;whiteSpace=wrap;connectable=0;strokeColor=inherit;overflow=hidden;fillColor=none;top=0;left=0;bottom=0;right=0;pointerEvents=1;" vertex="1" parent="z1JprwLejfdvqGFjg06h-64">
          <mxGeometry x="210" width="210" height="65" as="geometry">
            <mxRectangle width="210" height="65" as="alternateBounds" />
          </mxGeometry>
        </mxCell>
        <mxCell id="z1JprwLejfdvqGFjg06h-67" value="" style="shape=partialRectangle;html=1;whiteSpace=wrap;connectable=0;strokeColor=inherit;overflow=hidden;fillColor=none;top=0;left=0;bottom=0;right=0;pointerEvents=1;" vertex="1" parent="z1JprwLejfdvqGFjg06h-64">
          <mxGeometry x="420" width="210" height="65" as="geometry">
            <mxRectangle width="210" height="65" as="alternateBounds" />
          </mxGeometry>
        </mxCell>
        <mxCell id="z1JprwLejfdvqGFjg06h-68" value="" style="shape=partialRectangle;html=1;whiteSpace=wrap;connectable=0;strokeColor=inherit;overflow=hidden;fillColor=none;top=0;left=0;bottom=0;right=0;pointerEvents=1;" vertex="1" parent="z1JprwLejfdvqGFjg06h-64">
          <mxGeometry x="630" width="210" height="65" as="geometry">
            <mxRectangle width="210" height="65" as="alternateBounds" />
          </mxGeometry>
        </mxCell>
        <mxCell id="z1JprwLejfdvqGFjg06h-69" value="" style="shape=tableRow;horizontal=0;startSize=0;swimlaneHead=0;swimlaneBody=0;strokeColor=inherit;top=0;left=0;bottom=0;right=0;collapsible=0;dropTarget=0;fillColor=none;points=[[0,0.5],[1,0.5]];portConstraint=eastwest;" vertex="1" parent="z1JprwLejfdvqGFjg06h-58">
          <mxGeometry y="131" width="840" height="66" as="geometry" />
        </mxCell>
        <mxCell id="z1JprwLejfdvqGFjg06h-70" value="" style="shape=partialRectangle;html=1;whiteSpace=wrap;connectable=0;strokeColor=inherit;overflow=hidden;fillColor=none;top=0;left=0;bottom=0;right=0;pointerEvents=1;" vertex="1" parent="z1JprwLejfdvqGFjg06h-69">
          <mxGeometry width="210" height="66" as="geometry">
            <mxRectangle width="210" height="66" as="alternateBounds" />
          </mxGeometry>
        </mxCell>
        <mxCell id="z1JprwLejfdvqGFjg06h-71" value="" style="shape=partialRectangle;html=1;whiteSpace=wrap;connectable=0;strokeColor=inherit;overflow=hidden;fillColor=none;top=0;left=0;bottom=0;right=0;pointerEvents=1;" vertex="1" parent="z1JprwLejfdvqGFjg06h-69">
          <mxGeometry x="210" width="210" height="66" as="geometry">
            <mxRectangle width="210" height="66" as="alternateBounds" />
          </mxGeometry>
        </mxCell>
        <mxCell id="z1JprwLejfdvqGFjg06h-72" value="" style="shape=partialRectangle;html=1;whiteSpace=wrap;connectable=0;strokeColor=inherit;overflow=hidden;fillColor=none;top=0;left=0;bottom=0;right=0;pointerEvents=1;" vertex="1" parent="z1JprwLejfdvqGFjg06h-69">
          <mxGeometry x="420" width="210" height="66" as="geometry">
            <mxRectangle width="210" height="66" as="alternateBounds" />
          </mxGeometry>
        </mxCell>
        <mxCell id="z1JprwLejfdvqGFjg06h-73" value="" style="shape=partialRectangle;html=1;whiteSpace=wrap;connectable=0;strokeColor=inherit;overflow=hidden;fillColor=none;top=0;left=0;bottom=0;right=0;pointerEvents=1;" vertex="1" parent="z1JprwLejfdvqGFjg06h-69">
          <mxGeometry x="630" width="210" height="66" as="geometry">
            <mxRectangle width="210" height="66" as="alternateBounds" />
          </mxGeometry>
        </mxCell>
        <mxCell id="z1JprwLejfdvqGFjg06h-74" value="" style="shape=tableRow;horizontal=0;startSize=0;swimlaneHead=0;swimlaneBody=0;strokeColor=inherit;top=0;left=0;bottom=0;right=0;collapsible=0;dropTarget=0;fillColor=none;points=[[0,0.5],[1,0.5]];portConstraint=eastwest;" vertex="1" parent="z1JprwLejfdvqGFjg06h-58">
          <mxGeometry y="197" width="840" height="66" as="geometry" />
        </mxCell>
        <mxCell id="z1JprwLejfdvqGFjg06h-75" value="" style="shape=partialRectangle;html=1;whiteSpace=wrap;connectable=0;strokeColor=inherit;overflow=hidden;fillColor=none;top=0;left=0;bottom=0;right=0;pointerEvents=1;" vertex="1" parent="z1JprwLejfdvqGFjg06h-74">
          <mxGeometry width="210" height="66" as="geometry">
            <mxRectangle width="210" height="66" as="alternateBounds" />
          </mxGeometry>
        </mxCell>
        <mxCell id="z1JprwLejfdvqGFjg06h-76" value="" style="shape=partialRectangle;html=1;whiteSpace=wrap;connectable=0;strokeColor=inherit;overflow=hidden;fillColor=none;top=0;left=0;bottom=0;right=0;pointerEvents=1;" vertex="1" parent="z1JprwLejfdvqGFjg06h-74">
          <mxGeometry x="210" width="210" height="66" as="geometry">
            <mxRectangle width="210" height="66" as="alternateBounds" />
          </mxGeometry>
        </mxCell>
        <mxCell id="z1JprwLejfdvqGFjg06h-77" value="" style="shape=partialRectangle;html=1;whiteSpace=wrap;connectable=0;strokeColor=inherit;overflow=hidden;fillColor=none;top=0;left=0;bottom=0;right=0;pointerEvents=1;" vertex="1" parent="z1JprwLejfdvqGFjg06h-74">
          <mxGeometry x="420" width="210" height="66" as="geometry">
            <mxRectangle width="210" height="66" as="alternateBounds" />
          </mxGeometry>
        </mxCell>
        <mxCell id="z1JprwLejfdvqGFjg06h-78" value="" style="shape=partialRectangle;html=1;whiteSpace=wrap;connectable=0;strokeColor=inherit;overflow=hidden;fillColor=none;top=0;left=0;bottom=0;right=0;pointerEvents=1;" vertex="1" parent="z1JprwLejfdvqGFjg06h-74">
          <mxGeometry x="630" width="210" height="66" as="geometry">
            <mxRectangle width="210" height="66" as="alternateBounds" />
          </mxGeometry>
        </mxCell>
        <mxCell id="z1JprwLejfdvqGFjg06h-79" value="" style="shape=tableRow;horizontal=0;startSize=0;swimlaneHead=0;swimlaneBody=0;strokeColor=inherit;top=0;left=0;bottom=0;right=0;collapsible=0;dropTarget=0;fillColor=none;points=[[0,0.5],[1,0.5]];portConstraint=eastwest;" vertex="1" parent="z1JprwLejfdvqGFjg06h-58">
          <mxGeometry y="263" width="840" height="66" as="geometry" />
        </mxCell>
        <mxCell id="z1JprwLejfdvqGFjg06h-80" value="" style="shape=partialRectangle;html=1;whiteSpace=wrap;connectable=0;strokeColor=inherit;overflow=hidden;fillColor=none;top=0;left=0;bottom=0;right=0;pointerEvents=1;" vertex="1" parent="z1JprwLejfdvqGFjg06h-79">
          <mxGeometry width="210" height="66" as="geometry">
            <mxRectangle width="210" height="66" as="alternateBounds" />
          </mxGeometry>
        </mxCell>
        <mxCell id="z1JprwLejfdvqGFjg06h-81" value="" style="shape=partialRectangle;html=1;whiteSpace=wrap;connectable=0;strokeColor=inherit;overflow=hidden;fillColor=none;top=0;left=0;bottom=0;right=0;pointerEvents=1;" vertex="1" parent="z1JprwLejfdvqGFjg06h-79">
          <mxGeometry x="210" width="210" height="66" as="geometry">
            <mxRectangle width="210" height="66" as="alternateBounds" />
          </mxGeometry>
        </mxCell>
        <mxCell id="z1JprwLejfdvqGFjg06h-82" value="" style="shape=partialRectangle;html=1;whiteSpace=wrap;connectable=0;strokeColor=inherit;overflow=hidden;fillColor=none;top=0;left=0;bottom=0;right=0;pointerEvents=1;" vertex="1" parent="z1JprwLejfdvqGFjg06h-79">
          <mxGeometry x="420" width="210" height="66" as="geometry">
            <mxRectangle width="210" height="66" as="alternateBounds" />
          </mxGeometry>
        </mxCell>
        <mxCell id="z1JprwLejfdvqGFjg06h-83" value="" style="shape=partialRectangle;html=1;whiteSpace=wrap;connectable=0;strokeColor=inherit;overflow=hidden;fillColor=none;top=0;left=0;bottom=0;right=0;pointerEvents=1;" vertex="1" parent="z1JprwLejfdvqGFjg06h-79">
          <mxGeometry x="630" width="210" height="66" as="geometry">
            <mxRectangle width="210" height="66" as="alternateBounds" />
          </mxGeometry>
        </mxCell>
        <mxCell id="z1JprwLejfdvqGFjg06h-84" value="" style="shape=tableRow;horizontal=0;startSize=0;swimlaneHead=0;swimlaneBody=0;strokeColor=inherit;top=0;left=0;bottom=0;right=0;collapsible=0;dropTarget=0;fillColor=none;points=[[0,0.5],[1,0.5]];portConstraint=eastwest;" vertex="1" parent="z1JprwLejfdvqGFjg06h-58">
          <mxGeometry y="329" width="840" height="65" as="geometry" />
        </mxCell>
        <mxCell id="z1JprwLejfdvqGFjg06h-85" value="" style="shape=partialRectangle;html=1;whiteSpace=wrap;connectable=0;strokeColor=inherit;overflow=hidden;fillColor=none;top=0;left=0;bottom=0;right=0;pointerEvents=1;" vertex="1" parent="z1JprwLejfdvqGFjg06h-84">
          <mxGeometry width="210" height="65" as="geometry">
            <mxRectangle width="210" height="65" as="alternateBounds" />
          </mxGeometry>
        </mxCell>
        <mxCell id="z1JprwLejfdvqGFjg06h-86" value="" style="shape=partialRectangle;html=1;whiteSpace=wrap;connectable=0;strokeColor=inherit;overflow=hidden;fillColor=none;top=0;left=0;bottom=0;right=0;pointerEvents=1;" vertex="1" parent="z1JprwLejfdvqGFjg06h-84">
          <mxGeometry x="210" width="210" height="65" as="geometry">
            <mxRectangle width="210" height="65" as="alternateBounds" />
          </mxGeometry>
        </mxCell>
        <mxCell id="z1JprwLejfdvqGFjg06h-87" value="" style="shape=partialRectangle;html=1;whiteSpace=wrap;connectable=0;strokeColor=inherit;overflow=hidden;fillColor=none;top=0;left=0;bottom=0;right=0;pointerEvents=1;" vertex="1" parent="z1JprwLejfdvqGFjg06h-84">
          <mxGeometry x="420" width="210" height="65" as="geometry">
            <mxRectangle width="210" height="65" as="alternateBounds" />
          </mxGeometry>
        </mxCell>
        <mxCell id="z1JprwLejfdvqGFjg06h-88" value="" style="shape=partialRectangle;html=1;whiteSpace=wrap;connectable=0;strokeColor=inherit;overflow=hidden;fillColor=none;top=0;left=0;bottom=0;right=0;pointerEvents=1;" vertex="1" parent="z1JprwLejfdvqGFjg06h-84">
          <mxGeometry x="630" width="210" height="65" as="geometry">
            <mxRectangle width="210" height="65" as="alternateBounds" />
          </mxGeometry>
        </mxCell>
        <mxCell id="z1JprwLejfdvqGFjg06h-89" value="" style="shape=tableRow;horizontal=0;startSize=0;swimlaneHead=0;swimlaneBody=0;strokeColor=inherit;top=0;left=0;bottom=0;right=0;collapsible=0;dropTarget=0;fillColor=none;points=[[0,0.5],[1,0.5]];portConstraint=eastwest;" vertex="1" parent="z1JprwLejfdvqGFjg06h-58">
          <mxGeometry y="394" width="840" height="66" as="geometry" />
        </mxCell>
        <mxCell id="z1JprwLejfdvqGFjg06h-90" value="" style="shape=partialRectangle;html=1;whiteSpace=wrap;connectable=0;strokeColor=inherit;overflow=hidden;fillColor=none;top=0;left=0;bottom=0;right=0;pointerEvents=1;" vertex="1" parent="z1JprwLejfdvqGFjg06h-89">
          <mxGeometry width="210" height="66" as="geometry">
            <mxRectangle width="210" height="66" as="alternateBounds" />
          </mxGeometry>
        </mxCell>
        <mxCell id="z1JprwLejfdvqGFjg06h-91" value="" style="shape=partialRectangle;html=1;whiteSpace=wrap;connectable=0;strokeColor=inherit;overflow=hidden;fillColor=none;top=0;left=0;bottom=0;right=0;pointerEvents=1;" vertex="1" parent="z1JprwLejfdvqGFjg06h-89">
          <mxGeometry x="210" width="210" height="66" as="geometry">
            <mxRectangle width="210" height="66" as="alternateBounds" />
          </mxGeometry>
        </mxCell>
        <mxCell id="z1JprwLejfdvqGFjg06h-92" value="" style="shape=partialRectangle;html=1;whiteSpace=wrap;connectable=0;strokeColor=inherit;overflow=hidden;fillColor=none;top=0;left=0;bottom=0;right=0;pointerEvents=1;" vertex="1" parent="z1JprwLejfdvqGFjg06h-89">
          <mxGeometry x="420" width="210" height="66" as="geometry">
            <mxRectangle width="210" height="66" as="alternateBounds" />
          </mxGeometry>
        </mxCell>
        <mxCell id="z1JprwLejfdvqGFjg06h-93" value="" style="shape=partialRectangle;html=1;whiteSpace=wrap;connectable=0;strokeColor=inherit;overflow=hidden;fillColor=none;top=0;left=0;bottom=0;right=0;pointerEvents=1;" vertex="1" parent="z1JprwLejfdvqGFjg06h-89">
          <mxGeometry x="630" width="210" height="66" as="geometry">
            <mxRectangle width="210" height="66" as="alternateBounds" />
          </mxGeometry>
        </mxCell>
        <mxCell id="z1JprwLejfdvqGFjg06h-94" value="&lt;h1 style=&quot;margin-top: 0px;&quot;&gt;Os meus questionários&lt;/h1&gt;" style="text;html=1;whiteSpace=wrap;overflow=hidden;rounded=0;" vertex="1" parent="1">
          <mxGeometry x="160" y="160" width="290" height="30" as="geometry" />
        </mxCell>
        <mxCell id="z1JprwLejfdvqGFjg06h-95" value="&lt;font style=&quot;font-size: 20px;&quot;&gt;Novo&lt;/font&gt;" style="whiteSpace=wrap;html=1;rounded=0;shadow=0;labelBackgroundColor=none;strokeWidth=1;fontFamily=Verdana;fontSize=28;align=center;comic=1;" vertex="1" parent="1">
          <mxGeometry x="880" y="155" width="120" height="40" as="geometry" />
        </mxCell>
      </root>
    </mxGraphModel>
  </diagram>
</mxfile>
